<?xml version="1.0" encoding="UTF-8" standalone="no"?>
<!-- Created with Inkscape (http://www.inkscape.org/) -->

<svg
   width="26.947664mm"
   height="24.889614mm"
   viewBox="0 0 26.947664 24.889614"
   version="1.1"
   id="svg1"
   xml:space="preserve"
   inkscape:version="1.3 (0e150ed6c4, 2023-07-21)"
   sodipodi:docname="Settings.svg"
   xmlns:inkscape="http://www.inkscape.org/namespaces/inkscape"
   xmlns:sodipodi="http://sodipodi.sourceforge.net/DTD/sodipodi-0.dtd"
   xmlns="http://www.w3.org/2000/svg"
   xmlns:svg="http://www.w3.org/2000/svg"><sodipodi:namedview
     id="namedview1"
     pagecolor="#ffffff"
     bordercolor="#000000"
     borderopacity="0.25"
     inkscape:showpageshadow="2"
     inkscape:pageopacity="0.0"
     inkscape:pagecheckerboard="0"
     inkscape:deskcolor="#d1d1d1"
     inkscape:document-units="mm"
     showguides="true"
     inkscape:zoom="5.8511223"
     inkscape:cx="34.694199"
     inkscape:cy="33.925115"
     inkscape:window-width="1920"
     inkscape:window-height="1017"
     inkscape:window-x="-8"
     inkscape:window-y="-8"
     inkscape:window-maximized="1"
     inkscape:current-layer="g4" /><defs
     id="defs1"><marker
       style="overflow:visible"
       id="TriangleOutL"
       refX="0"
       refY="0"
       orient="auto"
       inkscape:stockid="TriangleOutL"
       inkscape:isstock="true"><path
         transform="scale(0.8)"
         style="fill:#000000;fill-opacity:1;fill-rule:evenodd;stroke:#000000;stroke-width:1pt;stroke-opacity:1"
         d="M 5.77,0 -2.88,5 V -5 Z"
         id="path987" /></marker><marker
       style="overflow:visible"
       id="Arrow1Lend"
       refX="0"
       refY="0"
       orient="auto"
       inkscape:stockid="Arrow1Lend"
       inkscape:isstock="true"><path
         transform="matrix(-0.8,0,0,-0.8,-10,0)"
         style="fill:#000000;fill-opacity:1;fill-rule:evenodd;stroke:#000000;stroke-width:1pt;stroke-opacity:1"
         d="M 0,0 5,-5 -12.5,0 5,5 Z"
         id="path848" /></marker><clipPath
       clipPathUnits="userSpaceOnUse"
       id="clipPath3"><circle
         style="fill:#d87d7d;fill-opacity:1;stroke-width:2.26772;stroke-linecap:round"
         id="circle3"
         cx="51.625385"
         cy="43.120949"
         r="30.550322" /></clipPath></defs><g
     inkscape:label="Vrstva 1"
     inkscape:groupmode="layer"
     id="layer1"
     transform="translate(-91.196656,-154.24388)"><g
       id="g4"
       transform="matrix(1.4400541,0,0,1.4400541,-46.060678,-73.352036)"><path
         id="path2"
         clip-path="url(#clipPath3)"
         style="fill:#000000;stroke-width:0.600001;stroke-linecap:round;fill-opacity:1"
         inkscape:transform-center-x="-0.062830487"
         inkscape:transform-center-y="-1.1644168"
         transform="matrix(0.26458333,0,0,0.26458333,91.011272,155.2796)"
         d="M 77.079232,78.446488 61.524589,65.691045 60.696734,85.789871 51.674967,67.81055 42.743754,85.835022 41.814809,65.740613 26.324527,78.574136 33.649025,59.839143 14.278084,65.262685 28.589555,51.126559 8.6873666,48.202339 27.511226,41.109346 10.51906,30.342989 30.600491,31.51957 19.456447,14.772676 37.323189,24.015391 33.954173,4.1836513 46.516903,19.89435 51.505449,0.40685194 56.591957,19.869012 69.0755,4.0953211 65.806283,23.943758 83.626305,14.611289 72.56664,31.414028 92.641897,30.136449 75.704101,40.988145 94.563399,47.986361 74.67617,51.010655 89.058565,65.074612 69.660586,59.748577 Z" /><circle
         style="fill:#ffffff;fill-opacity:1;stroke-width:0.600001;stroke-linecap:round"
         id="path3"
         cx="104.67049"
         cy="166.68869"
         r="4.7839766" /></g></g></svg>
